<svg id="Layer_1" data-name="Layer 1" xmlns="http://www.w3.org/2000/svg" viewBox="0 0 198.1 75.1"><defs><style>.cls-1{fill:#9fcaec;}.cls-2{fill:#84bbe5;}.cls-3{fill:#244093;}.cls-4{fill:#508fcc;}.cls-5{fill:#231f20;}</style></defs><title>CLMax_Logo_Illustrator</title><polygon class="cls-1" points="51.1 43 22.2 71.7 25.6 75.1 51.1 49.7 59.7 58.2 63 54.9 51.1 43"/><polygon class="cls-2" points="51.2 20.6 0.5 71.2 0 71.7 3.3 75.1 51.2 27.2 71 47.1 74.4 43.7 51.2 20.6"/><polygon class="cls-3" points="91.6 26.5 94.9 23.2 71.7 0 64.9 6.9 68.2 10.2 71.7 6.7 91.6 26.5"/><polygon class="cls-4" points="61.5 10.3 54.6 17.1 57.9 20.5 61.5 17 81.3 36.8 84.6 33.4 61.5 10.3"/><path class="cls-5" d="M97.2,75.8a1.5,1.5,0,0,0,1.7-1.4h1.4a2.9,2.9,0,0,1-3.1,2.5c-2.1,0-3.6-1.6-3.6-4A3.6,3.6,0,0,1,97.2,69a2.9,2.9,0,0,1,3.1,2.5H98.9a1.6,1.6,0,0,0-1.7-1.4c-1.4,0-2.2,1.1-2.2,2.8S95.8,75.8,97.2,75.8Z" transform="translate(-0.7 -1.8)"/><path class="cls-5" d="M108.6,76.9a3.6,3.6,0,0,1-3.7-3.9c0-2.3,1.4-4,3.7-4s3.6,1.7,3.6,4S110.8,76.9,108.6,76.9Zm0-6.8c-1.5,0-2.2,1.2-2.2,2.9s.7,2.8,2.2,2.8,2.2-1.1,2.2-2.8S110,70.1,108.6,70.1Z" transform="translate(-0.7 -1.8)"/><path class="cls-5" d="M122.5,74.5h.1V69.2h1.3v7.6h-1.3l-3.9-5.9h0v5.9h-1.4V69.2H119Z" transform="translate(-0.7 -1.8)"/><path class="cls-5" d="M130.3,74.5c.1,1,1,1.3,1.9,1.3s1.6-.4,1.6-1.1-.3-.9-1.2-1.1l-1.4-.2c-1.1-.2-2-.7-2-2.1A2.5,2.5,0,0,1,132,69c1.8,0,2.9.8,3.1,2.2h-1.3c-.1-.7-.8-1.1-1.8-1.1s-1.5.5-1.5,1.1.4.9,1.3,1l1.4.3a2,2,0,0,1,2,2.1c0,1.4-1.2,2.3-2.9,2.3s-3.2-.8-3.4-2.4Z" transform="translate(-0.7 -1.8)"/><path class="cls-5" d="M143.5,76.9c-2.1,0-3.3-1.1-3.3-3.2V69.2h1.5v4.5c0,1.3.6,2.1,1.8,2.1s1.8-.8,1.8-2.1V69.2h1.4v4.5A2.9,2.9,0,0,1,143.5,76.9Z" transform="translate(-0.7 -1.8)"/><path class="cls-5" d="M152.2,69.2h1.4v6.4h3.9v1.2h-5.3Z" transform="translate(-0.7 -1.8)"/><path class="cls-5" d="M163.8,70.3h-2.7V69.2h6.8v1.1h-2.7v6.5h-1.4Z" transform="translate(-0.7 -1.8)"/><path class="cls-5" d="M173,69.2h1.4v7.6H173Z" transform="translate(-0.7 -1.8)"/><path class="cls-5" d="M185.2,74.5h0V69.2h1.3v7.6h-1.3l-3.9-5.9h0v5.9h-1.4V69.2h1.7Z" transform="translate(-0.7 -1.8)"/><path class="cls-5" d="M195.3,69a2.9,2.9,0,0,1,3.2,2.5h-1.4a1.7,1.7,0,0,0-1.8-1.4c-1.4,0-2.2,1.1-2.2,2.8s.8,2.9,2.2,2.9a1.7,1.7,0,0,0,1.9-1.6v-.3h-1.5v-1h2.9v3.9h-1.1V75.7a2.4,2.4,0,0,1-2.2,1.2c-2.1,0-3.5-1.6-3.5-4A3.6,3.6,0,0,1,195.3,69Z" transform="translate(-0.7 -1.8)"/><path class="cls-5" d="M142.5,28.8a8.3,8.3,0,0,0-7.4,4.3c-1.1-2.9-3.4-4.3-6.8-4.3a7.5,7.5,0,0,0-6.7,3.7V29.3h-4V51.9h4.1V39.5c0-4.5,2.1-7.2,5.6-7.2s4.6,1.8,4.6,5.9V51.9h4.2V39.5c0-4.5,2.1-7.2,5.5-7.2s4.6,1.8,4.6,5.9V51.9h4.2V37.4C150.4,31.8,147.6,28.8,142.5,28.8Z" transform="translate(-0.7 -1.8)"/><path class="cls-5" d="M104.3,32.2c2.8,0,4.6,1.5,5.2,4.4v.2h4v-.3c-.8-4.9-4.2-7.7-9.2-7.7S93.6,33.5,93.6,40.6s3.7,11.2,9.4,11.8v8.2h6.4V58.4h-4.1v-6a8.6,8.6,0,0,0,8.2-7.7v-.3h-4v.2c-.6,2.9-2.4,4.4-5.2,4.4s-6.6-3.1-6.6-8.4S100.3,32.2,104.3,32.2Z" transform="translate(-0.7 -1.8)"/><path class="cls-5" d="M173.3,47.1V36.9c0-5.3-3.2-8.1-9-8.1s-8.5,2.7-8.9,7.2v.3h4v-.2c.3-2.5,2-3.9,4.8-3.9s5,1.7,5,4.8v1l-6.9.9c-5.3.6-7.9,3-7.9,6.9s3,6.6,7.4,6.6,6.2-1.3,7.5-3.4a21.9,21.9,0,0,0,.4,2.7v.2h4.2v-.3A17.7,17.7,0,0,1,173.3,47.1Zm-4.1-5.8V43c0,4.2-3.5,6.1-6.6,6.1s-4-1.3-4-3.4,1.8-3.4,4.8-3.8Z" transform="translate(-0.7 -1.8)"/><polygon class="cls-5" points="193.2 50.2 198.1 50.2 189.4 38.3 197.4 27.5 192.8 27.5 187.1 35.5 181.4 27.6 181.3 27.5 176.3 27.5 184.5 38.5 175.9 50.2 180.5 50.2 186.8 41.4 193.1 50.1 193.2 50.2"/></svg>