<svg data-name="Layer 1" xmlns="http://www.w3.org/2000/svg" viewBox="0 0 559.04 183.92"><defs><clipPath id="a" transform="translate(-21.27 -148.98)"><path fill="none" d="M21.27 148.98h559.04V332.9H21.27z"/></clipPath></defs><g clip-path="url(#a)"><path fill="#26358c" d="M7.49 183.92L0 176.43 176.43.01l34.41 34.41-7.49 7.49-26.92-26.93L7.49 183.92z"/><path fill="#5692ce" d="M69.54 183.92l-7.49-7.49L238.48.01l38.69 38.68-7.49 7.49-31.2-31.2L69.54 183.92z"/><path fill="#96c2e9" d="M137.61 183.92l-7.49-7.49L306.54 0l41.52 41.52-7.49 7.49-34.03-34.03-168.93 168.94z"/></g><path fill="#b0d2f0" d="M551.55 183.92L382.61 14.98 213.67 183.92l-7.49-7.49L382.61 0l176.43 176.43-7.49 7.49z"/></svg>