<svg id="Layer_1" data-name="Layer 1" xmlns="http://www.w3.org/2000/svg" viewBox="0 0 568.94 460.39"><defs><style>.cls-1{fill:#b0d2f0}.cls-2{fill:#96c2e9}.cls-3{fill:#26358c}.cls-4{fill:#5692ce}</style></defs><path class="cls-1" transform="rotate(-49.88 156.627 421.354)" d="M103.03 397.42h143.91v19.09H103.03z"/><path class="cls-1" transform="rotate(-50.32 256.027 421.758)" d="M264.75 322.32h19.09V492.8h-19.09z"/><path class="cls-2" transform="rotate(-49.04 109.968 357.206)" d="M-29.75 332.94h316.6v19.09h-316.6z"/><path class="cls-2" transform="rotate(-49.93 305.188 309.204)" d="M314.05 169.5h19.08v250.72h-19.08z"/><path class="cls-3" d="M342.81 102.51L328.6 89.78 408.95 0l2.18 26.25-68.32 76.26z"/><path class="cls-3" transform="rotate(-48.7 483.022 101.303)" d="M490.65-20.15h19.08v212.69h-19.08z"/><path class="cls-4" transform="rotate(-48.25 281.18 171.927)" d="M247.01 147.29h105.9v19.09h-105.9z"/><path class="cls-4" transform="rotate(-49.64 394.354 200.18)" d="M403.28 72.64h19.08v226.12h-19.08z"/></svg>